<svg id="OBJECTS" xmlns="http://www.w3.org/2000/svg" xmlns:xlink="http://www.w3.org/1999/xlink" viewBox="0 0 216.68 67.58"><defs><style>.cls-1{font-size:7.85px;fill:#666;font-family:Lato-Light, Lato Light;font-weight:300;}.cls-2{fill:url(#Degradado_sin_nombre_13);}.cls-3{fill:url(#Degradado_sin_nombre_13-2);}.cls-4{fill:url(#Degradado_sin_nombre_13-3);}.cls-5{fill:url(#Degradado_sin_nombre_13-4);}.cls-6{fill:url(#Degradado_sin_nombre_13-5);}.cls-7{fill:url(#Degradado_sin_nombre_13-6);}.cls-8{fill:url(#Degradado_sin_nombre_13-7);}.cls-9{fill:url(#Degradado_sin_nombre_13-8);}.cls-10{fill:url(#Degradado_sin_nombre_13-9);}.cls-11{fill:url(#Degradado_sin_nombre_13-10);}.cls-12{fill:url(#Degradado_sin_nombre_13-11);}.cls-13{fill:url(#Degradado_sin_nombre_13-12);}.cls-14{fill:url(#Degradado_sin_nombre_13-13);}.cls-15{fill:url(#Degradado_sin_nombre_13-14);}.cls-16{fill:url(#Degradado_sin_nombre_13-15);}.cls-17{fill:url(#Degradado_sin_nombre_13-16);}.cls-18{fill:url(#Degradado_sin_nombre_13-17);}.cls-19{fill:url(#Degradado_sin_nombre_13-18);}.cls-20{fill:url(#Degradado_sin_nombre_13-19);}.cls-21{fill:url(#Degradado_sin_nombre_13-20);}.cls-22{fill:url(#Degradado_sin_nombre_13-21);}.cls-23{fill:url(#Degradado_sin_nombre_13-22);}.cls-24{fill:url(#Degradado_sin_nombre_13-23);}.cls-25{fill:url(#Degradado_sin_nombre_13-24);}.cls-26{fill:url(#Degradado_sin_nombre_13-25);}.cls-27{fill:url(#Degradado_sin_nombre_13-26);}.cls-28{fill:url(#Degradado_sin_nombre_13-27);}.cls-29{fill:url(#Degradado_sin_nombre_13-28);}.cls-30{fill:url(#Degradado_sin_nombre_13-29);}.cls-31{fill:url(#Degradado_sin_nombre_13-30);}.cls-32{fill:url(#Degradado_sin_nombre_13-31);}.cls-33{fill:url(#Degradado_sin_nombre_13-32);}.cls-34{fill:url(#Degradado_sin_nombre_13-33);}.cls-35{fill:url(#Degradado_sin_nombre_13-34);}.cls-36{fill:url(#Degradado_sin_nombre_13-35);}.cls-37{fill:url(#Degradado_sin_nombre_13-37);}.cls-38{fill:url(#Degradado_sin_nombre_13-38);}.cls-39{fill:url(#Degradado_sin_nombre_13-39);}.cls-40{fill:url(#Degradado_sin_nombre_13-40);}.cls-41{fill:url(#Degradado_sin_nombre_13-41);}.cls-42{fill:url(#Degradado_sin_nombre_13-42);}.cls-43{fill:url(#Degradado_sin_nombre_13-43);}</style><linearGradient id="Degradado_sin_nombre_13" x1="524.47" y1="335.31" x2="726.17" y2="335.31" gradientUnits="userSpaceOnUse"><stop offset="0" stop-color="#d443a2"/><stop offset="1" stop-color="#7121ff"/></linearGradient><linearGradient id="Degradado_sin_nombre_13-2" x1="524.47" y1="328.89" x2="726.17" y2="328.89" xlink:href="#Degradado_sin_nombre_13"/><linearGradient id="Degradado_sin_nombre_13-3" x1="524.47" y1="325.42" x2="726.17" y2="325.42" xlink:href="#Degradado_sin_nombre_13"/><linearGradient id="Degradado_sin_nombre_13-4" x1="524.47" y1="323.43" x2="726.17" y2="323.43" xlink:href="#Degradado_sin_nombre_13"/><linearGradient id="Degradado_sin_nombre_13-5" x1="524.47" y1="322.41" x2="726.18" y2="322.41" xlink:href="#Degradado_sin_nombre_13"/><linearGradient id="Degradado_sin_nombre_13-6" x1="524.47" y1="321.86" x2="726.17" y2="321.86" xlink:href="#Degradado_sin_nombre_13"/><linearGradient id="Degradado_sin_nombre_13-7" x1="524.47" y1="321.86" x2="726.17" y2="321.86" xlink:href="#Degradado_sin_nombre_13"/><linearGradient id="Degradado_sin_nombre_13-8" x1="524.47" y1="322.23" x2="726.17" y2="322.23" xlink:href="#Degradado_sin_nombre_13"/><linearGradient id="Degradado_sin_nombre_13-9" x1="524.47" y1="323.43" x2="726.17" y2="323.43" xlink:href="#Degradado_sin_nombre_13"/><linearGradient id="Degradado_sin_nombre_13-10" x1="524.47" y1="325.2" x2="726.17" y2="325.2" xlink:href="#Degradado_sin_nombre_13"/><linearGradient id="Degradado_sin_nombre_13-11" x1="524.47" y1="328.22" x2="726.17" y2="328.22" xlink:href="#Degradado_sin_nombre_13"/><linearGradient id="Degradado_sin_nombre_13-12" x1="524.47" y1="332.25" x2="726.17" y2="332.25" xlink:href="#Degradado_sin_nombre_13"/><linearGradient id="Degradado_sin_nombre_13-13" x1="524.47" y1="336.1" x2="726.17" y2="336.1" xlink:href="#Degradado_sin_nombre_13"/><linearGradient id="Degradado_sin_nombre_13-14" x1="524.47" y1="338.55" x2="726.17" y2="338.55" xlink:href="#Degradado_sin_nombre_13"/><linearGradient id="Degradado_sin_nombre_13-15" x1="524.47" y1="340.41" x2="726.17" y2="340.41" xlink:href="#Degradado_sin_nombre_13"/><linearGradient id="Degradado_sin_nombre_13-16" x1="524.47" y1="341.23" x2="726.17" y2="341.23" xlink:href="#Degradado_sin_nombre_13"/><linearGradient id="Degradado_sin_nombre_13-17" x1="524.47" y1="341.62" x2="726.17" y2="341.62" xlink:href="#Degradado_sin_nombre_13"/><linearGradient id="Degradado_sin_nombre_13-18" x1="524.47" y1="342.01" x2="726.17" y2="342.01" xlink:href="#Degradado_sin_nombre_13"/><linearGradient id="Degradado_sin_nombre_13-19" x1="524.47" y1="341.62" x2="726.17" y2="341.62" xlink:href="#Degradado_sin_nombre_13"/><linearGradient id="Degradado_sin_nombre_13-20" x1="524.46" y1="340.71" x2="726.17" y2="340.71" xlink:href="#Degradado_sin_nombre_13"/><linearGradient id="Degradado_sin_nombre_13-21" x1="524.47" y1="338.85" x2="726.17" y2="338.85" xlink:href="#Degradado_sin_nombre_13"/><linearGradient id="Degradado_sin_nombre_13-22" x1="524.47" y1="335.76" x2="726.17" y2="335.76" xlink:href="#Degradado_sin_nombre_13"/><linearGradient id="Degradado_sin_nombre_13-23" x1="524.47" y1="331.97" x2="726.17" y2="331.97" xlink:href="#Degradado_sin_nombre_13"/><linearGradient id="Degradado_sin_nombre_13-24" x1="524.47" y1="326.11" x2="726.17" y2="326.11" xlink:href="#Degradado_sin_nombre_13"/><linearGradient id="Degradado_sin_nombre_13-25" x1="524.46" y1="319.3" x2="726.17" y2="319.3" xlink:href="#Degradado_sin_nombre_13"/><linearGradient id="Degradado_sin_nombre_13-26" x1="524.47" y1="314.21" x2="726.17" y2="314.21" xlink:href="#Degradado_sin_nombre_13"/><linearGradient id="Degradado_sin_nombre_13-27" x1="524.47" y1="311.64" x2="726.17" y2="311.64" xlink:href="#Degradado_sin_nombre_13"/><linearGradient id="Degradado_sin_nombre_13-28" x1="524.47" y1="311.14" x2="726.17" y2="311.14" xlink:href="#Degradado_sin_nombre_13"/><linearGradient id="Degradado_sin_nombre_13-29" x1="524.47" y1="311.88" x2="726.17" y2="311.88" xlink:href="#Degradado_sin_nombre_13"/><linearGradient id="Degradado_sin_nombre_13-30" x1="524.47" y1="315.37" x2="726.17" y2="315.37" xlink:href="#Degradado_sin_nombre_13"/><linearGradient id="Degradado_sin_nombre_13-31" x1="524.47" y1="322.88" x2="726.17" y2="322.88" xlink:href="#Degradado_sin_nombre_13"/><linearGradient id="Degradado_sin_nombre_13-32" x1="524.47" y1="332.5" x2="726.17" y2="332.5" xlink:href="#Degradado_sin_nombre_13"/><linearGradient id="Degradado_sin_nombre_13-33" x1="524.46" y1="337.9" x2="726.17" y2="337.9" xlink:href="#Degradado_sin_nombre_13"/><linearGradient id="Degradado_sin_nombre_13-34" x1="524.47" y1="340.41" x2="726.17" y2="340.41" xlink:href="#Degradado_sin_nombre_13"/><linearGradient id="Degradado_sin_nombre_13-35" x1="524.47" y1="340.71" x2="726.17" y2="340.71" xlink:href="#Degradado_sin_nombre_13"/><linearGradient id="Degradado_sin_nombre_13-37" x1="524.47" y1="338.85" x2="726.17" y2="338.85" xlink:href="#Degradado_sin_nombre_13"/><linearGradient id="Degradado_sin_nombre_13-38" x1="524.46" y1="335.42" x2="726.17" y2="335.42" xlink:href="#Degradado_sin_nombre_13"/><linearGradient id="Degradado_sin_nombre_13-39" x1="524.47" y1="329.34" x2="726.17" y2="329.34" xlink:href="#Degradado_sin_nombre_13"/><linearGradient id="Degradado_sin_nombre_13-40" x1="524.47" y1="325.45" x2="726.17" y2="325.45" xlink:href="#Degradado_sin_nombre_13"/><linearGradient id="Degradado_sin_nombre_13-41" x1="524.47" y1="323.78" x2="726.17" y2="323.78" xlink:href="#Degradado_sin_nombre_13"/><linearGradient id="Degradado_sin_nombre_13-42" x1="524.47" y1="322.88" x2="726.17" y2="322.88" xlink:href="#Degradado_sin_nombre_13"/><linearGradient id="Degradado_sin_nombre_13-43" x1="524.46" y1="322.68" x2="726.17" y2="322.68" xlink:href="#Degradado_sin_nombre_13"/></defs><title>2</title><text class="cls-1" transform="translate(0 65.62)">10</text><text class="cls-1" transform="translate(0 46.09)">20</text><text class="cls-1" transform="translate(0 26.57)">30</text><text class="cls-1" transform="translate(0 6.57)">40</text><path class="cls-2" d="M526.7,344.29a1,1,0,0,1-1-1v-16a1,1,0,1,1,2,0v16A1,1,0,0,1,526.7,344.29Z" transform="translate(-507.94 -277.48)"/><path class="cls-3" d="M531.39,344.29a1,1,0,0,1-1-1V314.48a1,1,0,0,1,2,0v28.83A1,1,0,0,1,531.39,344.29Z" transform="translate(-507.94 -277.48)"/><path class="cls-4" d="M536.08,344.29a1,1,0,0,1-1-1V307.54a1,1,0,1,1,2,0v35.77A1,1,0,0,1,536.08,344.29Z" transform="translate(-507.94 -277.48)"/><path class="cls-5" d="M540.77,344.29a1,1,0,0,1-1-1V303.56a1,1,0,1,1,2,0v39.75A1,1,0,0,1,540.77,344.29Z" transform="translate(-507.94 -277.48)"/><path class="cls-6" d="M545.46,344.29a1,1,0,0,1-1-1v-41.8a1,1,0,0,1,2,0v41.8A1,1,0,0,1,545.46,344.29Z" transform="translate(-507.94 -277.48)"/><path class="cls-7" d="M550.15,344.29a1,1,0,0,1-1-1v-42.9a1,1,0,1,1,2,0v42.9A1,1,0,0,1,550.15,344.29Z" transform="translate(-507.94 -277.48)"/><path class="cls-8" d="M554.83,344.29a1,1,0,0,1-1-1v-42.9a1,1,0,0,1,2,0v42.9A1,1,0,0,1,554.83,344.29Z" transform="translate(-507.94 -277.48)"/><path class="cls-9" d="M559.52,344.29a1,1,0,0,1-1-1V301.16a1,1,0,0,1,2,0v42.15A1,1,0,0,1,559.52,344.29Z" transform="translate(-507.94 -277.48)"/><path class="cls-10" d="M564.21,344.29a1,1,0,0,1-1-1V303.56a1,1,0,1,1,2,0v39.75A1,1,0,0,1,564.21,344.29Z" transform="translate(-507.94 -277.48)"/><path class="cls-11" d="M568.9,344.29a1,1,0,0,1-1-1V307.08a1,1,0,1,1,2,0v36.23A1,1,0,0,1,568.9,344.29Z" transform="translate(-507.94 -277.48)"/><path class="cls-12" d="M573.59,344.29a1,1,0,0,1-1-1V313.13a1,1,0,0,1,2,0v30.18A1,1,0,0,1,573.59,344.29Z" transform="translate(-507.94 -277.48)"/><path class="cls-13" d="M578.28,344.29a1,1,0,0,1-1-1V321.19a1,1,0,0,1,2,0v22.12A1,1,0,0,1,578.28,344.29Z" transform="translate(-507.94 -277.48)"/><path class="cls-14" d="M583,344.29a1,1,0,0,1-1-1V328.89a1,1,0,1,1,2,0v14.42A1,1,0,0,1,583,344.29Z" transform="translate(-507.94 -277.48)"/><path class="cls-15" d="M587.66,344.29a1,1,0,0,1-1-1v-9.52a1,1,0,0,1,2,0v9.52A1,1,0,0,1,587.66,344.29Z" transform="translate(-507.94 -277.48)"/><path class="cls-16" d="M592.35,344.29a1,1,0,0,1-1-1v-5.79a1,1,0,1,1,2,0v5.79A1,1,0,0,1,592.35,344.29Z" transform="translate(-507.94 -277.48)"/><path class="cls-17" d="M597,344.29a1,1,0,0,1-1-1v-4.16a1,1,0,0,1,2,0v4.16A1,1,0,0,1,597,344.29Z" transform="translate(-507.94 -277.48)"/><path class="cls-18" d="M601.72,344.29a1,1,0,0,1-1-1v-3.38a1,1,0,0,1,2,0v3.38A1,1,0,0,1,601.72,344.29Z" transform="translate(-507.94 -277.48)"/><path class="cls-19" d="M606.41,344.29a1,1,0,0,1-1-1v-2.59a1,1,0,0,1,2,0v2.59A1,1,0,0,1,606.41,344.29Z" transform="translate(-507.94 -277.48)"/><path class="cls-20" d="M611.1,344.29a1,1,0,0,1-1-1v-3.38a1,1,0,1,1,2,0v3.38A1,1,0,0,1,611.1,344.29Z" transform="translate(-507.94 -277.48)"/><path class="cls-21" d="M615.79,344.29a1,1,0,0,1-1-1v-5.19a1,1,0,0,1,2,0v5.19A1,1,0,0,1,615.79,344.29Z" transform="translate(-507.94 -277.48)"/><path class="cls-22" d="M620.48,344.29a1,1,0,0,1-1-1v-8.92a1,1,0,1,1,2,0v8.92A1,1,0,0,1,620.48,344.29Z" transform="translate(-507.94 -277.48)"/><path class="cls-23" d="M625.17,344.29a1,1,0,0,1-1-1V328.22a1,1,0,0,1,2,0v15.09A1,1,0,0,1,625.17,344.29Z" transform="translate(-507.94 -277.48)"/><path class="cls-24" d="M629.86,344.29a1,1,0,0,1-1-1V320.63a1,1,0,0,1,2,0v22.68A1,1,0,0,1,629.86,344.29Z" transform="translate(-507.94 -277.48)"/><path class="cls-25" d="M634.55,344.29a1,1,0,0,1-1-1v-34.4a1,1,0,0,1,2,0v34.4A1,1,0,0,1,634.55,344.29Z" transform="translate(-507.94 -277.48)"/><path class="cls-26" d="M639.24,344.29a1,1,0,0,1-1-1v-48a1,1,0,1,1,2,0v48A1,1,0,0,1,639.24,344.29Z" transform="translate(-507.94 -277.48)"/><path class="cls-27" d="M643.93,344.29a1,1,0,0,1-1-1V285.12a1,1,0,1,1,2,0v58.19A1,1,0,0,1,643.93,344.29Z" transform="translate(-507.94 -277.48)"/><path class="cls-28" d="M648.61,344.29a1,1,0,0,1-1-1V280a1,1,0,0,1,2,0v63.33A1,1,0,0,1,648.61,344.29Z" transform="translate(-507.94 -277.48)"/><path class="cls-29" d="M653.3,344.29a1,1,0,0,1-1-1V279a1,1,0,0,1,2,0v64.34A1,1,0,0,1,653.3,344.29Z" transform="translate(-507.94 -277.48)"/><path class="cls-30" d="M658,344.29a1,1,0,0,1-1-1V280.45a1,1,0,1,1,2,0v62.86A1,1,0,0,1,658,344.29Z" transform="translate(-507.94 -277.48)"/><path class="cls-31" d="M662.68,344.29a1,1,0,0,1-1-1V287.43a1,1,0,0,1,2,0v55.88A1,1,0,0,1,662.68,344.29Z" transform="translate(-507.94 -277.48)"/><path class="cls-32" d="M667.37,344.29a1,1,0,0,1-1-1V302.45a1,1,0,1,1,2,0v40.86A1,1,0,0,1,667.37,344.29Z" transform="translate(-507.94 -277.48)"/><path class="cls-33" d="M672.06,344.29a1,1,0,0,1-1-1V321.69a1,1,0,0,1,2,0v21.62A1,1,0,0,1,672.06,344.29Z" transform="translate(-507.94 -277.48)"/><path class="cls-34" d="M676.75,344.29a1,1,0,0,1-1-1V332.5a1,1,0,0,1,2,0v10.81A1,1,0,0,1,676.75,344.29Z" transform="translate(-507.94 -277.48)"/><path class="cls-35" d="M681.44,344.29a1,1,0,0,1-1-1v-5.79a1,1,0,1,1,2,0v5.79A1,1,0,0,1,681.44,344.29Z" transform="translate(-507.94 -277.48)"/><path class="cls-36" d="M686.13,344.29a1,1,0,0,1-1-1v-5.19a1,1,0,0,1,2,0v5.19A1,1,0,0,1,686.13,344.29Z" transform="translate(-507.94 -277.48)"/><path class="cls-35" d="M690.81,344.29a1,1,0,0,1-1-1v-5.79a1,1,0,1,1,2,0v5.79A1,1,0,0,1,690.81,344.29Z" transform="translate(-507.94 -277.48)"/><path class="cls-37" d="M695.5,344.29a1,1,0,0,1-1-1v-8.92a1,1,0,0,1,2,0v8.92A1,1,0,0,1,695.5,344.29Z" transform="translate(-507.94 -277.48)"/><path class="cls-38" d="M700.19,344.29a1,1,0,0,1-1-1V327.54a1,1,0,0,1,2,0v15.77A1,1,0,0,1,700.19,344.29Z" transform="translate(-507.94 -277.48)"/><path class="cls-39" d="M704.88,344.29a1,1,0,0,1-1-1V315.37a1,1,0,0,1,2,0v27.94A1,1,0,0,1,704.88,344.29Z" transform="translate(-507.94 -277.48)"/><path class="cls-40" d="M709.57,344.29a1,1,0,0,1-1-1V307.59a1,1,0,0,1,2,0v35.72A1,1,0,0,1,709.57,344.29Z" transform="translate(-507.94 -277.48)"/><path class="cls-41" d="M714.26,344.29a1,1,0,0,1-1-1V304.26a1,1,0,0,1,2,0v39.05A1,1,0,0,1,714.26,344.29Z" transform="translate(-507.94 -277.48)"/><path class="cls-42" d="M719,344.29a1,1,0,0,1-1-1V302.45a1,1,0,0,1,2,0v40.86A1,1,0,0,1,719,344.29Z" transform="translate(-507.94 -277.48)"/><path class="cls-43" d="M723.64,344.29a1,1,0,0,1-1-1V302a1,1,0,0,1,2,0v41.27A1,1,0,0,1,723.64,344.29Z" transform="translate(-507.94 -277.48)"/></svg>