<svg id="OBJECTS" xmlns="http://www.w3.org/2000/svg" xmlns:xlink="http://www.w3.org/1999/xlink" viewBox="0 0 215.83 128.73"><defs><style>.cls-1,.cls-5,.cls-6,.cls-8,.cls-9{fill:none;stroke-linecap:round;stroke-linejoin:round;}.cls-1{stroke:#d9d9d9;stroke-width:0.5px;}.cls-2{font-size:16.67px;font-family:Lato-Light, Lato Light;font-weight:300;}.cls-3{font-size:7.85px;fill:#666;font-family:Lato-Regular, Lato Regular;}.cls-4{fill:#00bbab;}.cls-5,.cls-6,.cls-8,.cls-9{stroke-width:2px;}.cls-5{stroke:url(#Degradado_sin_nombre_32);}.cls-6{stroke:url(#Degradado_sin_nombre_6);}.cls-7{fill:#ee4057;}.cls-8{stroke:url(#Degradado_sin_nombre_13);}.cls-9{stroke:url(#Degradado_sin_nombre_18);}</style><linearGradient id="Degradado_sin_nombre_32" x1="546.59" y1="36.14" x2="692.41" y2="36.14" gradientUnits="userSpaceOnUse"><stop offset="0" stop-color="#77c190"/><stop offset="1" stop-color="#608a99"/></linearGradient><linearGradient id="Degradado_sin_nombre_6" x1="546.59" y1="68.63" x2="691.85" y2="68.63" gradientUnits="userSpaceOnUse"><stop offset="0" stop-color="#fdb97c"/><stop offset="1" stop-color="#ee4057"/></linearGradient><linearGradient id="Degradado_sin_nombre_13" x1="546.59" y1="108.69" x2="691.85" y2="108.69" gradientUnits="userSpaceOnUse"><stop offset="0" stop-color="#d443a2"/><stop offset="1" stop-color="#7121ff"/></linearGradient><linearGradient id="Degradado_sin_nombre_18" x1="546.59" y1="145.97" x2="691.85" y2="145.97" gradientUnits="userSpaceOnUse"><stop offset="0" stop-color="#ee4057"/><stop offset="1" stop-color="#359faf"/></linearGradient></defs><title>2332019</title><line class="cls-1" x1="39.65" y1="15.24" x2="183.47" y2="15.24"/><line class="cls-1" x1="39.65" y1="8.04" x2="183.47" y2="8.04"/><line class="cls-1" x1="39.65" y1="0.84" x2="183.47" y2="0.84"/><text class="cls-2" transform="translate(0 14.36)">450</text><text class="cls-3" transform="translate(192.19 10.68)">10%</text><polygon class="cls-4" points="215.83 7.98 210.89 7.98 213.36 5.51 215.83 7.98"/><path class="cls-5" d="M547.59,33.58l5.06,6a5.84,5.84,0,0,0,8.83.08l7.36-8.36a5.83,5.83,0,0,1,8.81.07l7.12,8.32a5.83,5.83,0,0,0,8.75.12l2.77-3.06a5.83,5.83,0,0,1,7.22-1.15l9,5.18a5.84,5.84,0,0,0,8.6-3.82l.72-3.28a5.82,5.82,0,0,1,5.69-4.58l18.29,0a5.78,5.78,0,0,1,3.45,1.12l16.3,11.94a5.84,5.84,0,0,0,7-.06l7.08-5.4a5.82,5.82,0,0,1,3.53-1.19h8.22" transform="translate(-507.94 -28.05)"/><line class="cls-1" x1="39.65" y1="51.21" x2="183.47" y2="51.21"/><line class="cls-1" x1="39.65" y1="44.01" x2="183.47" y2="44.01"/><line class="cls-1" x1="39.65" y1="36.81" x2="183.47" y2="36.81"/><text class="cls-3" transform="translate(192.19 45.74)">25%</text><polygon class="cls-4" points="215.83 43.05 210.89 43.05 213.36 40.58 215.83 43.05"/><text class="cls-2" transform="translate(0 49.13)">235</text><path class="cls-6" d="M547.59,78.48l8.55-11.8a5.83,5.83,0,0,1,7.78-1.55l6.85,4.22a5.85,5.85,0,0,0,4.67.64l9.16-2.63a5.87,5.87,0,0,1,5.45,1.22l5.4,4.72a5.83,5.83,0,0,0,6.88.59l10-6.08a5.83,5.83,0,0,1,6.09,0L624,71.28a5.86,5.86,0,0,0,6.59-.32l14.51-11a5.83,5.83,0,0,1,6.78-.2l15.78,10.62a5.9,5.9,0,0,0,3.26,1h7.91a5.85,5.85,0,0,0,4.12-1.71l7.92-7.92" transform="translate(-507.94 -28.05)"/><line class="cls-1" x1="39.65" y1="87.84" x2="183.47" y2="87.84"/><line class="cls-1" x1="39.65" y1="80.64" x2="183.47" y2="80.64"/><line class="cls-1" x1="39.65" y1="73.44" x2="183.47" y2="73.44"/><text class="cls-3" transform="translate(192.19 83.75)">70%</text><polygon class="cls-7" points="210.89 79.82 215.83 79.82 213.36 82.29 210.89 79.82"/><text class="cls-2" transform="translate(0 87.83)">600</text><path class="cls-8" d="M547.59,116l7.11-6.24a5.83,5.83,0,0,1,5.3-1.26l11.41,2.94a5.88,5.88,0,0,0,3.66-.24l14-5.69,7.54-3.49a5.83,5.83,0,0,1,5.5.31l14.42,8.84a5.85,5.85,0,0,0,5.9.11l9.71-5.47a5.85,5.85,0,0,1,6.29.37l6.27,4.56A5.84,5.84,0,0,0,651,111l14.22-8.16a5.83,5.83,0,0,1,7,.94l8.46,8.45A5.77,5.77,0,0,0,684,113.9l6.9,1.09" transform="translate(-507.94 -28.05)"/><line class="cls-1" x1="39.65" y1="124.04" x2="183.47" y2="124.04"/><line class="cls-1" x1="39.65" y1="116.84" x2="183.47" y2="116.84"/><line class="cls-1" x1="39.65" y1="109.63" x2="183.47" y2="109.63"/><text class="cls-3" transform="translate(192.19 119.8)">85%</text><polygon class="cls-7" points="210.89 115.86 215.83 115.86 213.36 118.33 210.89 115.86"/><text class="cls-2" transform="translate(0 124.56)">750</text><path class="cls-9" d="M547.59,154l8.07-4.65a5.88,5.88,0,0,1,2.92-.78h12.87a5.84,5.84,0,0,0,3.33-1.05l9.09-6.32a5.83,5.83,0,0,1,8.38,1.87l3.6,6.23a5.83,5.83,0,0,0,8.94,1.42l7.42-6.66a5.84,5.84,0,0,1,9.56,3h0a5.82,5.82,0,0,0,5.72,4.44l18.34-.18a5.83,5.83,0,0,0,3.46-1.18l14.59-11a5.84,5.84,0,0,1,4.69-1.07l10.9,2.24a5.83,5.83,0,0,1,3,1.65l8.38,8.61" transform="translate(-507.94 -28.05)"/></svg>