<svg id="OBJECTS" xmlns="http://www.w3.org/2000/svg" xmlns:xlink="http://www.w3.org/1999/xlink" viewBox="0 0 207.24 66.11"><defs><style>.cls-1,.cls-2{font-size:7.85px;fill:#666;}.cls-1{font-family:Lato-Light, Lato Light;font-weight:300;}.cls-2{font-family:Lato-Bold, Lato Bold;font-weight:700;}.cls-13,.cls-3{fill:none;stroke-linecap:round;stroke-linejoin:round;}.cls-3{stroke:#d9d9d9;stroke-width:0.5px;}.cls-4{fill:url(#Degradado_sin_nombre_2);}.cls-5{fill:url(#Degradado_sin_nombre_2-2);}.cls-6{fill:url(#Degradado_sin_nombre_2-3);}.cls-7{fill:url(#Degradado_sin_nombre_2-4);}.cls-8{fill:url(#Degradado_sin_nombre_2-5);}.cls-9{fill:url(#Degradado_sin_nombre_2-6);}.cls-10{fill:url(#Degradado_sin_nombre_2-7);}.cls-11{fill:url(#Degradado_sin_nombre_2-8);}.cls-12{fill:#ccc;}.cls-13{stroke-width:2px;stroke:url(#Degradado_sin_nombre_2-9);}.cls-14{fill:url(#Degradado_sin_nombre_2-10);}.cls-15{fill:url(#Degradado_sin_nombre_2-11);}.cls-16{fill:url(#Degradado_sin_nombre_2-12);}.cls-17{fill:url(#Degradado_sin_nombre_2-13);}.cls-18{fill:url(#Degradado_sin_nombre_2-14);}.cls-19{fill:url(#Degradado_sin_nombre_2-15);}</style><linearGradient id="Degradado_sin_nombre_2" x1="48.15" y1="102.54" x2="240.46" y2="102.54" gradientUnits="userSpaceOnUse"><stop offset="0" stop-color="#77c190"/><stop offset="1" stop-color="#4b57a1"/></linearGradient><linearGradient id="Degradado_sin_nombre_2-2" x1="48.16" y1="102.54" x2="240.46" y2="102.54" xlink:href="#Degradado_sin_nombre_2"/><linearGradient id="Degradado_sin_nombre_2-3" x1="48.16" y1="102.54" x2="240.46" y2="102.54" xlink:href="#Degradado_sin_nombre_2"/><linearGradient id="Degradado_sin_nombre_2-4" x1="48.16" y1="102.54" x2="240.46" y2="102.54" xlink:href="#Degradado_sin_nombre_2"/><linearGradient id="Degradado_sin_nombre_2-5" x1="48.16" y1="102.54" x2="240.46" y2="102.54" xlink:href="#Degradado_sin_nombre_2"/><linearGradient id="Degradado_sin_nombre_2-6" x1="48.16" y1="102.54" x2="240.47" y2="102.54" xlink:href="#Degradado_sin_nombre_2"/><linearGradient id="Degradado_sin_nombre_2-7" x1="48.16" y1="102.54" x2="240.46" y2="102.54" xlink:href="#Degradado_sin_nombre_2"/><linearGradient id="Degradado_sin_nombre_2-8" x1="48.16" y1="102.54" x2="240.47" y2="102.54" xlink:href="#Degradado_sin_nombre_2"/><linearGradient id="Degradado_sin_nombre_2-9" x1="50.32" y1="73.94" x2="239.76" y2="73.94" xlink:href="#Degradado_sin_nombre_2"/><linearGradient id="Degradado_sin_nombre_2-10" x1="62.41" y1="92.89" x2="190.42" y2="92.89" xlink:href="#Degradado_sin_nombre_2"/><linearGradient id="Degradado_sin_nombre_2-11" x1="51.87" y1="77.9" x2="239.93" y2="77.9" xlink:href="#Degradado_sin_nombre_2"/><linearGradient id="Degradado_sin_nombre_2-12" x1="50.52" y1="82.01" x2="238.14" y2="82.01" xlink:href="#Degradado_sin_nombre_2"/><linearGradient id="Degradado_sin_nombre_2-13" x1="52.51" y1="55.15" x2="240.13" y2="55.15" xlink:href="#Degradado_sin_nombre_2"/><linearGradient id="Degradado_sin_nombre_2-14" x1="51.99" y1="71.14" x2="239.61" y2="71.14" xlink:href="#Degradado_sin_nombre_2"/><linearGradient id="Degradado_sin_nombre_2-15" x1="52.47" y1="75.4" x2="240.09" y2="75.4" xlink:href="#Degradado_sin_nombre_2"/></defs><title>3</title><text class="cls-1" transform="translate(0 52.29)">10</text><text class="cls-1" transform="translate(0 29.83)">20</text><text class="cls-1" transform="translate(0 7.36)">30</text><text class="cls-2" transform="translate(16.95 64.15)">0</text><text class="cls-2" transform="translate(42.69 64.15)">1</text><text class="cls-2" transform="translate(69.42 64.15)">2</text><text class="cls-2" transform="translate(96.14 64.15)">3</text><text class="cls-2" transform="translate(122.86 64.15)">4</text><text class="cls-2" transform="translate(149.59 64.15)">5</text><text class="cls-2" transform="translate(176.31 64.15)">6</text><text class="cls-2" transform="translate(203.03 64.15)">7</text><line class="cls-3" x1="19.24" y1="50.66" x2="206.04" y2="50.66"/><line class="cls-3" x1="19.24" y1="28.08" x2="206.04" y2="28.08"/><line class="cls-3" x1="19.24" y1="5.5" x2="206.04" y2="5.5"/><path class="cls-4" d="M52,102.54a1.2,1.2,0,1,1-1.2-1.2A1.2,1.2,0,0,1,52,102.54Z" transform="translate(-32.71 -52.21)"/><path class="cls-5" d="M78.8,102.54a1.2,1.2,0,0,1-2.4,0,1.2,1.2,0,0,1,2.4,0Z" transform="translate(-32.71 -52.21)"/><path class="cls-6" d="M105.66,102.54a1.2,1.2,0,0,1-2.4,0,1.2,1.2,0,1,1,2.4,0Z" transform="translate(-32.71 -52.21)"/><path class="cls-7" d="M132.52,102.54a1.2,1.2,0,1,1-1.2-1.2A1.2,1.2,0,0,1,132.52,102.54Z" transform="translate(-32.71 -52.21)"/><path class="cls-8" d="M159.38,102.54a1.2,1.2,0,1,1-1.2-1.2A1.2,1.2,0,0,1,159.38,102.54Z" transform="translate(-32.71 -52.21)"/><path class="cls-9" d="M213.1,102.54a1.2,1.2,0,1,1-1.2-1.2A1.2,1.2,0,0,1,213.1,102.54Z" transform="translate(-32.71 -52.21)"/><path class="cls-10" d="M186.24,102.54a1.2,1.2,0,1,1-1.2-1.2A1.2,1.2,0,0,1,186.24,102.54Z" transform="translate(-32.71 -52.21)"/><path class="cls-11" d="M240,102.54a1.2,1.2,0,1,1-1.19-1.2A1.19,1.19,0,0,1,240,102.54Z" transform="translate(-32.71 -52.21)"/><path class="cls-12" d="M64.19,102.87a.79.79,0,1,1-1.58,0,.79.79,0,0,1,1.58,0Z" transform="translate(-32.71 -52.21)"/><path class="cls-12" d="M91.14,102.87a.79.79,0,1,1-.78-.78A.78.78,0,0,1,91.14,102.87Z" transform="translate(-32.71 -52.21)"/><path class="cls-12" d="M118.1,102.87a.79.79,0,1,1-.78-.78A.78.78,0,0,1,118.1,102.87Z" transform="translate(-32.71 -52.21)"/><path class="cls-12" d="M145.06,102.87a.79.79,0,1,1-.78-.78A.78.78,0,0,1,145.06,102.87Z" transform="translate(-32.71 -52.21)"/><path class="cls-12" d="M172,102.87a.79.79,0,1,1-.78-.78A.78.78,0,0,1,172,102.87Z" transform="translate(-32.71 -52.21)"/><path class="cls-12" d="M199,102.87a.79.79,0,1,1-.78-.78A.78.78,0,0,1,199,102.87Z" transform="translate(-32.71 -52.21)"/><path class="cls-12" d="M225.94,102.87a.79.79,0,1,1-.79-.78A.79.79,0,0,1,225.94,102.87Z" transform="translate(-32.71 -52.21)"/><path class="cls-13" d="M51.32,83.67l16.74,7.84a17.09,17.09,0,0,0,17.53-1.83l11-8.32a17.08,17.08,0,0,1,19.68-.63h0a17.07,17.07,0,0,0,24.28-5.9L147,63.47a17.08,17.08,0,0,1,28.57-1.87l3.92,5.24a17.07,17.07,0,0,0,13.68,6.85h11.65a17.06,17.06,0,0,1,9.54,2.91l24.43,16.45" transform="translate(-32.71 -52.21)"/><path class="cls-14" d="M80.55,92.89a2.95,2.95,0,1,1-3-2.94A2.94,2.94,0,0,1,80.55,92.89Z" transform="translate(-32.71 -52.21)"/><path class="cls-15" d="M107.41,77.9a2.95,2.95,0,1,1-3-2.94A2.94,2.94,0,0,1,107.41,77.9Z" transform="translate(-32.71 -52.21)"/><path class="cls-16" d="M134.26,82a2.94,2.94,0,1,1-2.94-3A2.94,2.94,0,0,1,134.26,82Z" transform="translate(-32.71 -52.21)"/><path class="cls-17" d="M161.12,55.15a2.94,2.94,0,1,1-2.94-2.94A2.95,2.95,0,0,1,161.12,55.15Z" transform="translate(-32.71 -52.21)"/><path class="cls-18" d="M188,71.14A2.94,2.94,0,1,1,185,68.2,2.94,2.94,0,0,1,188,71.14Z" transform="translate(-32.71 -52.21)"/><path class="cls-19" d="M214.84,75.4a2.95,2.95,0,1,1-2.94-2.94A2.94,2.94,0,0,1,214.84,75.4Z" transform="translate(-32.71 -52.21)"/></svg>